<svg width="40" height="40" fill="none" xmlns="http://www.w3.org/2000/svg"><path d="M34.149 5.852c-7.802-7.803-20.495-7.803-28.297 0-7.803 7.802-7.803 20.495 0 28.297 7.802 7.802 20.496 7.8 28.297 0 7.8-7.801 7.802-20.495 0-28.297zM8.043 31.957c-6.592-6.592-6.593-17.32 0-23.914 6.594-6.593 17.322-6.592 23.914 0 6.592 6.593 6.593 17.32 0 23.914-6.593 6.593-17.32 6.593-23.914 0z" fill="#FC5F07"/><path d="M26.674 24.285l-4.383-4.383 4.383-4.384a1.55 1.55 0 10-2.191-2.192l-4.384 4.384-4.384-4.384a1.55 1.55 0 10-2.192 2.192l4.384 4.384-4.384 4.383a1.55 1.55 0 102.192 2.192l4.384-4.384 4.384 4.384a1.55 1.55 0 102.191-2.192z" fill="#FC5F07"/></svg>