<svg width="16" height="19" fill="none" xmlns="http://www.w3.org/2000/svg"><path fill-rule="evenodd" clip-rule="evenodd" d="M8 0C4.881 0 2.353 2.49 2.353 5.561v2.317h.941V5.561C3.294 3.001 5.401.927 8 .927s4.706 2.075 4.706 4.634v2.317h.941V5.561C13.647 2.49 11.12 0 8 0zm0 12.512c.26 0 .47-.207.47-.463a.467.467 0 00-.47-.464c-.26 0-.47.208-.47.464s.21.463.47.463zm0 .927a1.4 1.4 0 001.412-1.39A1.4 1.4 0 008 10.659a1.4 1.4 0 00-1.412 1.39A1.4 1.4 0 008 13.439z" fill="#96979B"/><path d="M7.53 12.512h.94v1.854h-.94v-1.854z" fill="#96979B"/><path fill-rule="evenodd" clip-rule="evenodd" d="M12.235 7.878h-8.47c-1.56 0-2.824 1.245-2.824 2.78v4.635c0 1.535 1.264 2.78 2.824 2.78h8.47c1.56 0 2.824-1.245 2.824-2.78v-4.634c0-1.536-1.264-2.781-2.824-2.781zm-8.47-.927C1.685 6.951 0 8.611 0 10.66v4.634C0 17.34 1.686 19 3.765 19h8.47C14.315 19 16 17.34 16 15.293v-4.634c0-2.048-1.685-3.708-3.765-3.708h-8.47z" fill="#96979B"/></svg>