<svg width="32" height="40" fill="none" xmlns="http://www.w3.org/2000/svg"><path d="M27.2 13.333v-1.666C27.2 5.235 22.176 0 16 0 9.824 0 4.8 5.235 4.8 11.667v1.666c-2.646 0-4.8 2.244-4.8 5V35c0 2.757 2.154 5 4.8 5h22.4c2.646 0 4.8-2.243 4.8-5V18.333c0-2.756-2.154-5-4.8-5zM8 11.667c0-4.595 3.589-8.334 8-8.334s8 3.739 8 8.334v1.666H8v-1.666zM28.8 35c0 .92-.718 1.667-1.6 1.667H4.8c-.882 0-1.6-.747-1.6-1.667V18.333c0-.92.718-1.666 1.6-1.666h22.4c.882 0 1.6.746 1.6 1.666V35z" fill="#D3D3D3"/><path d="M16 19.167c-2.646 0-4.8 2.243-4.8 5 0 2.17 1.342 4.003 3.2 4.693v2.807c0 .921.717 1.666 1.6 1.666.883 0 1.6-.745 1.6-1.666V28.86c1.857-.69 3.2-2.523 3.2-4.693 0-2.757-2.154-5-4.8-5zm0 6.666c-.882 0-1.6-.746-1.6-1.666 0-.92.718-1.667 1.6-1.667.882 0 1.6.747 1.6 1.667s-.718 1.666-1.6 1.666z" fill="#D3D3D3"/></svg>