<svg width="40" height="40" fill="none" xmlns="http://www.w3.org/2000/svg"><path d="M20 0C8.971 0 0 8.971 0 20s8.971 20 20 20 20-8.973 20-20S31.029 0 20 0zm0 36.902C10.682 36.902 3.098 29.32 3.098 20S10.682 3.098 20 3.098c9.32 0 16.902 7.582 16.902 16.902S29.318 36.902 20 36.902z" fill="#4CC5AB"/><path d="M29.176 13.044a1.55 1.55 0 00-2.188.105l-9.45 10.406-4.565-4.64a1.548 1.548 0 00-2.19-.02c-.611.6-.62 1.58-.02 2.191l5.716 5.81a1.547 1.547 0 002.25-.044l10.552-11.619a1.55 1.55 0 00-.105-2.189z" fill="#4CC5AB"/></svg>