<svg width="100" height="127" fill="none" xmlns="http://www.w3.org/2000/svg"><path d="M87.273 16.64H75.758V11.5c0-1.664-1.819-2.42-3.485-2.42h-8.94C61.214 3.034 55.91.01 49.85.01a13.788 13.788 0 00-13.485 9.07h-8.788c-1.667 0-3.333.756-3.333 2.42v5.14H12.727C5.903 16.711.321 22.082 0 28.884v86.625C0 122.162 6.06 127 12.727 127h74.546c6.666 0 12.727-4.838 12.727-11.49V28.885c-.32-6.802-5.903-12.173-12.727-12.246zm-56.97-1.512h8.333a3.33 3.33 0 002.88-2.722 8.783 8.783 0 018.333-6.802 8.63 8.63 0 018.182 6.802 3.33 3.33 0 003.03 2.722h8.636v12.094H30.303V15.128zM93.939 115.51c0 3.326-3.333 5.442-6.666 5.442H12.727c-3.333 0-6.666-2.116-6.666-5.442V28.885a6.812 6.812 0 016.666-6.198h11.515v7.71a3.18 3.18 0 003.334 2.873h44.696a3.331 3.331 0 003.485-2.873v-7.71h11.515a6.812 6.812 0 016.667 6.198v86.626z" fill="#F6F7F9"/><path d="M38.333 67.587a3.035 3.035 0 00-4.242-.151l-9.697 9.222-4.091-4.233a3.035 3.035 0 00-4.243-.151 3.17 3.17 0 000 4.384l6.212 6.35a2.73 2.73 0 002.122.907 3.033 3.033 0 002.12-.908l11.82-11.187a2.868 2.868 0 000-4.233zm43.485 6.501H46.97a3.027 3.027 0 00-3.03 3.023 3.027 3.027 0 003.03 3.024h34.848a3.027 3.027 0 003.03-3.024 3.027 3.027 0 00-3.03-3.023zm-43.485-30.69a3.035 3.035 0 00-4.242-.15l-9.697 9.221-4.091-4.233a3.035 3.035 0 00-4.243-.151 3.17 3.17 0 000 4.384l6.212 6.35a2.73 2.73 0 002.122.907 3.033 3.033 0 002.12-.907l11.82-11.189a2.868 2.868 0 000-4.233zm43.485 6.501H46.97a3.027 3.027 0 00-3.03 3.023 3.027 3.027 0 003.03 3.024h34.848a3.027 3.027 0 003.03-3.023 3.027 3.027 0 00-3.03-3.024zM38.333 91.775a3.035 3.035 0 00-4.242-.15l-9.697 9.221-4.091-4.233a3.035 3.035 0 00-4.243-.151 3.17 3.17 0 000 4.384l6.212 6.35c.538.6 1.315.933 2.122.907a3.03 3.03 0 002.12-.907l11.819-11.187a2.868 2.868 0 000-4.234zm43.485 6.501H46.97a3.027 3.027 0 00-3.03 3.024 3.026 3.026 0 003.03 3.023h34.848a3.026 3.026 0 003.03-3.023 3.027 3.027 0 00-3.03-3.024z" fill="#F6F7F9"/></svg>